<?xml version="1.0" encoding="utf-8"?>
<svg version="1.1" id="Layer_2_1_" xmlns="http://www.w3.org/2000/svg" xmlns:xlink="http://www.w3.org/1999/xlink" x="0px" y="0px"
	 viewBox="0 0 403.5 318.2" style="enable-background:new 0 0 403.5 318.2;" xml:space="preserve">
<style type="text/css">
	.st0{fill:#B6BCBF;}
</style>
<g>
	<ellipse class="st0" cx="176.5" cy="50" rx="48.1" ry="48.2"/>
	<path class="st0" d="M187.6,316.9c12.8,0,24.3-5.6,32.2-14.4c-27.7-3.5-53.3-8.7-72.4-12.9C153.7,305.6,169.3,316.9,187.6,316.9z"
		/>
	<path class="st0" d="M180.1,107c-26.4,4.4-38.1,34.7-38.1,34.7c28.7-4.1,51.2-7.3,82.6-12.2C217.3,108.5,191.3,105.1,180.1,107z"/>
	<path class="st0" d="M375.3,89.2c-28.5,12.3-110.6,45.5-190.8,56.9c-78.1,11.2-149.6,12.3-176.4,12.3c-4.8,0-7.7,5.3-5.1,9.4
		l57.5,88.8c1.9,2.9,4.7,5,8,5.9c17.9,4.9,79.9,21.4,142.9,30.8c55.5,8.3,97.2,7,115.1,5.7c5.6-0.4,10.4-4.4,11.7-9.9l45.1-193.3
		C384.3,91.2,379.7,87.3,375.3,89.2z M308.7,266.4l-60.1,11c-11.5,2.1-22.5-5.5-24.5-17c-0.5-2.9,1.4-5.7,4.3-6.2l75.4-14.6
		c2.9-0.6,5.8,1.4,6.3,4.3l2.9,16.2C313.6,263,311.7,265.8,308.7,266.4z M312.5,212.5c-1.6,0.7-39.1,16.5-102.6,23.1
		c-22.4,2.3-43.8,3.1-62.1,3.1c-32.8,0-55.6-2.4-55.9-2.4c-3.6-0.4-6.2-3.6-5.9-7.3c0.4-3.6,3.6-6.2,7.3-5.9
		c0.5,0.1,54.3,5.7,115.2-0.6c61.3-6.4,98.4-22,98.8-22.1c3.3-1.4,7.2,0.1,8.7,3.5C317.4,207.2,315.8,211.1,312.5,212.5z
		 M312.8,169.9c-1.8,0.7-44.9,16.1-108,23.8c-33.9,4.2-66.4,5.1-89.1,5.1c-19,0-31.1-0.7-31.3-0.7c-3.6-0.2-6.4-3.3-6.2-7
		c0.2-3.6,3.3-6.4,7-6.2c0.6,0,57.1,3.1,118.1-4.4c61.6-7.6,104.7-23,105.1-23.1c3.4-1.2,7.2,0.5,8.4,4
		C318,164.9,316.3,168.7,312.8,169.9z"/>
	<path class="st0" d="M14.4,229.7c0,10.8,8.8,19.6,19.5,19.6c4.1,0,7.9-1.3,11.1-3.4L23.8,213C18.2,216.5,14.4,222.6,14.4,229.7z"/>
	<path class="st0" d="M382.5,159.1c-2.2,0-4.3,0.4-6.3,1.1l-11.3,47.9c15.5-7,24.9-11,27.9-12.8c5.6-3.4,9.3-9.6,9.3-16.7
		C402,167.9,393.2,159.1,382.5,159.1z"/>
</g>
</svg>
